<?xml version="1.0" encoding="utf-8"?>
<!-- Generator: Adobe Illustrator 22.0.1, SVG Export Plug-In . SVG Version: 6.00 Build 0)  -->
<svg version="1.1" id="Layer_1" xmlns="http://www.w3.org/2000/svg" xmlns:xlink="http://www.w3.org/1999/xlink" x="0px" y="0px"
	 viewBox="0 0 694.7 137.9" style="enable-background:new 0 0 694.7 137.9;" xml:space="preserve">
<g>
	<path d="M61.4,61.1c3.3,0,5.9,0.9,7.8,2.7c1.9,1.8,2.8,4.3,2.8,7.6c0,0.8-0.1,1.6-0.2,2.5c-0.2,0.9-0.3,1.6-0.5,2.2
		c-1.3-0.2-2.8-0.4-4.4-0.5c-1.6-0.2-3.5-0.2-5.7-0.2c-4.3,0-8.7,0.4-13.2,1.1c-4.4,0.8-8.7,1.4-12.7,1.9
		c-2.3,5.4-4.4,10.5-6.4,15.5c-1.9,5-3.6,9.6-4.9,13.7c-1.4,4.1-2.4,7.7-3.2,10.8c-0.8,3-1.2,5.3-1.3,6.8c8.2-1.9,16.4-3.4,24.7-4.8
		c8.3-1.3,17.1-2,26.2-2c1.1,1.7,2,3.5,2.8,5.4c0.8,2,1.1,4.1,1.1,6.3c0,0.6,0,1.2,0,1.9c0,0.7-0.1,1.4-0.3,2.1c-2.8,0-5.8,0-8.9,0
		c-3.1,0-7.2,0-12.3,0c-3.3,0-6.5,0-9.5,0c-3,0-6,0.2-9,0.5c-3,0.3-6.2,0.7-9.6,1.3c-3.4,0.5-7.2,1.2-11.4,1.9
		C8.8,136,4.3,131.6,0,124.6c1.7-3.6,4.1-9.2,7.2-16.6c3.1-7.4,7-17.3,11.7-29.8c-4.5-1.4-7.5-3.9-8.9-7.6c0.5-0.5,2-1.1,4.4-1.9
		c2.4-0.8,5.4-1.5,8.9-2.3c1.5-3.9,2.8-7.4,3.9-10.3c1.1-2.9,2-5.7,2.8-8.2c0.8-2.6,1.5-5.1,2.2-7.6c0.7-2.5,1.3-5.2,1.9-8.1
		c-3.5,0-6.3-0.9-8.3-2.7c-2-1.8-3-4.1-3-7c0-0.8,0.1-1.8,0.4-2.9c0.3-1.1,0.5-2.1,0.8-2.9c2,0.2,4,0.2,5.8,0.2c1.9,0,4.3,0,7.3,0
		c6.4,0,12.3,0,17.8,0c5.5,0,10.6-0.3,15-0.8c4.5-0.5,8.3-1,11.6-1.4c3.2-0.4,5.7-0.7,7.4-0.7c2.3,0,4.4,1.2,6.2,3.6
		s3.2,5.9,4.1,10.3c-3.1-0.4-5.7-0.6-7.6-0.6c-2,0-3.7,0-5.2,0c-5.5,0-10.6,0.3-15.2,0.8c-4.6,0.6-9,1.1-13.2,1.7
		c-0.6,0.9-1.3,2.1-2,3.5c-0.8,1.4-1.7,3.4-2.9,5.9s-2.7,5.7-4.5,9.5c-1.8,3.8-3.9,8.6-6.4,14.3c3.8-0.6,7.4-1.1,10.8-1.4
		C56.2,61.3,59.1,61.1,61.4,61.1z"/>
	<path d="M85.2,122.5c0.5-2.9,1.4-6.8,2.6-11.6c1.3-4.8,2.7-9.9,4.5-15.3c1.7-5.4,3.5-10.8,5.4-16.3c1.9-5.4,3.8-10.3,5.6-14.7
		c1.3-3.1,2.5-5.6,3.5-7.3c1-1.8,2.1-3.3,3.3-4.5c1.4,0.2,2.9,0.6,4.4,1.1c1.5,0.5,3,1.1,4.4,1.8c1.4,0.7,2.7,1.4,3.8,2.2
		c1.1,0.8,2,1.5,2.6,2.2c-2.7,3.2-5.1,6.9-7.2,11c-2.1,4.1-4.2,9.4-6.3,15.9c5.4-4.8,10.3-9.5,14.4-13.9c4.2-4.4,8.1-9.4,11.7-14.8
		c0.6-0.5,1.7-0.8,3.2-0.8c1.4,0,2.8,0.2,4.1,0.7c1.3,0.5,2.2,1.1,2.7,1.9c-1.8,4.8-2.7,9.6-2.7,14.4c0,4.4,0.7,7.8,2,10
		c-0.1,0.6-0.8,1.8-2,3.5c-1.3,1.7-2.6,3.3-4.2,4.8c-2.7-1.4-5.1-3.4-7.3-5.8c-2.1-2.5-3.7-5.2-4.7-8.1c-4.7,3.3-8.8,6.6-12.1,9.8
		c-3.3,3.2-6.2,6.7-8.5,10.6c-2.4,3.9-4.4,8.3-6,13.4c-1.7,5-3.3,11-4.8,18c-0.9-0.1-2-0.4-3.3-1c-1.3-0.6-2.5-1.2-3.8-2
		c-1.3-0.8-2.4-1.7-3.4-2.6C86.1,124.2,85.5,123.3,85.2,122.5z"/>
	<path d="M149.9,115.4c0-0.9,0.1-2,0.2-3.4c0.2-1.4,0.4-3.2,0.8-5.4c0.4-2.3,0.9-5,1.6-8.2c0.7-3.2,1.5-7.1,2.5-11.6
		c0.2-1,0.7-2.6,1.4-4.8c0.7-2.2,1.6-4.6,2.8-7c1.2-2.5,2.6-4.9,4.2-7.2c1.7-2.3,3.7-4,6-5.1c1.7,0.4,4,1.4,6.8,3.1
		c2.8,1.7,5.2,4,7.3,6.9c-2.3,2.6-4.3,5.2-5.8,7.9c-1.6,2.6-3,5.3-4.2,8.2c-1.3,2.8-2.4,5.7-3.5,8.8c-1.1,3-2.2,6.2-3.6,9.5
		c-1.1,2.8-2.1,5.7-3,8.7c-0.9,3-1.4,5.6-1.5,7.8c0,1.8,0,3.1-0.1,3.9c-0.1,0.8-0.3,1.1-0.8,1.1c-0.4,0-1.2-0.3-2.4-0.8
		c-1.2-0.5-2.4-1.3-3.7-2.3c-1.3-1.1-2.4-2.4-3.4-4C150.4,119.5,149.9,117.6,149.9,115.4z M178.8,49.8c0-0.6,0.2-1.5,0.5-2.7
		c-0.5-0.5-0.9-1.3-1.3-2.3c-0.4-1-0.5-1.9-0.5-2.7c0-0.9,0.1-2.1,0.4-3.7c0.3-1.6,0.6-3.3,1-5.1c0.4-1.8,0.9-3.7,1.5-5.7
		s1.2-3.8,1.8-5.4c1.2,0,2.7,0.3,4.5,1c1.8,0.7,3.6,1.5,5.4,2.6c1.8,1.1,3.5,2.2,5,3.5c1.5,1.3,2.7,2.4,3.5,3.6
		c-1.1,1.1-2.6,2.6-4.4,4.6s-3.6,4-5.3,6.2c-1.7,2.2-3.3,4.2-4.7,6.1c-1.4,1.9-2.3,3.3-2.7,4.1c-1.2-0.2-2.3-0.7-3.2-1.6
		C179.2,51.4,178.8,50.6,178.8,49.8z"/>
	<path d="M186.3,98.9c0-5.7,1.2-11.3,3.6-16.7c2.4-5.4,5.5-10.2,9.4-14.4c3.9-4.2,8.3-7.6,13.3-10.1c5-2.6,10.2-3.9,15.5-3.9
		c5.2,0,9.3,1.3,12.1,3.9c2.8,2.6,4.2,6.4,4.2,11.2c0,2.3-0.3,4.6-1,6.7c-0.7,2.2-1.5,4.1-2.6,5.8c-1.1,1.7-2.3,3.1-3.7,4.2
		c-1.4,1.1-2.8,1.6-4.2,1.6c-1.2,0-2.4-0.4-3.7-1.1c-1.3-0.8-2.3-1.7-3.1-2.9c6.8-6.1,10.1-11.7,10.1-16.8c0-2.9-1.2-4.4-3.5-4.4
		c-2,0-4.5,1-7.6,2.9c-3,1.9-6,4.4-8.8,7.6c-4.3,4.8-7.6,10.2-9.9,16.1s-3.4,12.1-3.4,18.5c0,8.2,1.8,13.1,5.4,14.7
		c1.5-0.2,3.3-0.7,5.3-1.4c2-0.7,4.2-1.6,6.5-2.8c2.3-1.2,4.7-2.5,7.2-4c2.5-1.5,4.9-3.1,7.2-4.8c0.4,0.3,0.8,0.8,1.1,1.4
		c0.3,0.6,0.5,1.2,0.5,1.7c-1.7,2.1-3.7,4.2-5.9,6.2c-2.2,2-4.5,3.9-7,5.5c-2.4,1.7-4.8,3.1-7,4.2c-2.3,1.2-4.3,1.9-6,2.2
		c-3.3-0.3-6.5-1.3-9.4-3.1c-2.9-1.8-5.5-4.1-7.6-6.9c-2.2-2.8-3.9-6-5.1-9.7C187,106.6,186.3,102.8,186.3,98.9z"/>
	<path d="M384.2,23.6c0.3,1.7,0.5,2.9,0.7,3.6c0.2,0.7,0.2,1.5,0.2,2.6c0,3.3-0.7,6.4-2.2,9.3c-1.5,2.9-3.5,4.9-6,6.1
		c-2-2.7-4.5-5.1-7.4-7c-2.9-2-6.1-3.6-9.6-4.8c-3.5-1.3-7.1-2.2-10.8-2.8c-3.7-0.6-7.4-0.9-10.9-0.9c-3.5,0-6.8,0.3-9.9,0.8
		c-3.1,0.6-5.8,1.3-8.2,2.3c-2.4,1-4.2,2.1-5.6,3.6c-1.4,1.4-2,3-2,4.8c0.3,2.2,1.7,4.5,4.1,6.7c2.4,2.3,5.4,4.5,8.9,6.7
		c3.5,2.2,7.4,4.3,11.7,6.4c4.3,2.1,8.5,4.1,12.6,6c5.1,2.4,9.6,4.7,13.3,6.7c3.7,2.1,6.8,4.3,9.2,6.8c2.4,2.5,4.2,5.3,5.4,8.4
		c1.2,3.1,1.8,6.9,1.8,11.3c0,5.1-0.9,10-2.6,14.4c-1.7,4.5-4.2,8.4-7.5,11.7c-3.3,3.3-7.2,5.9-11.9,7.8c-4.6,1.9-9.8,2.8-15.6,2.8
		c-5.6,0-11.7-0.9-18.3-2.6c-6.6-1.7-12.7-4.1-18.4-7c-5.7-3-10.4-6.4-14.2-10.3c-3.8-3.9-5.7-8-5.7-12.3c0-2,0.6-4.6,1.7-7.7
		c1.2-3.1,3.3-6.4,6.3-9.8c0.3,3,1.9,6.6,4.9,10.7c3,4.1,7.4,8,13.4,11.5c5.5,3.2,11.3,5.6,17.2,7c5.9,1.5,11.4,2.2,16.6,2.2
		c5.6,0,10.2-0.7,13.8-2.1c3.5-1.4,6.3-3.1,8.3-5.1c2-2,3.4-4,4.2-6c0.8-2,1.3-3.6,1.4-4.8c-0.1-2-1-4-2.8-5.8
		c-1.8-1.9-4.1-3.7-7.1-5.4c-3-1.8-6.4-3.6-10.4-5.4s-8-3.6-12.3-5.4c-6.4-2.8-11.8-5.5-16.4-7.9c-4.6-2.5-8.4-5-11.3-7.6
		c-3-2.6-5.1-5.3-6.5-8.1c-1.4-2.8-2-6-2-9.7c0-5.6,1.7-11,5.1-16c3.4-5,8.4-8.9,14.8-11.5c3.2-1.4,6.7-2.4,10.4-3
		c3.7-0.6,7.3-0.9,10.8-0.9c6.7,0,13.2,0.9,19.5,2.7C371.5,18.5,377.8,20.8,384.2,23.6z"/>
	<path d="M408.2,130.8c-5.7-0.6-10.3-3.1-13.8-7.6c-3.4-4.4-5.1-10.1-5.1-16.9c0-4,0.6-8.2,1.8-12.6c1.2-4.3,2.9-8.5,5.1-12.6
		c2.2-4.1,4.8-7.9,7.9-11.6c3-3.6,6.3-6.8,9.8-9.4c5.5-4.1,10.7-6.2,15.6-6.2c3.2,1.7,6.4,5.3,9.5,10.7c0.5,0,1,0,1.4-0.1
		c0.4,0,0.9-0.1,1.4-0.1c5.3,0,8,4.7,8,14.2c0,6.4-1,12.4-3.1,18.1c-2.1,5.7-4.9,10.9-8.6,15.5c-3.7,4.6-8.1,8.5-13.2,11.7
		C419.8,127.3,414.3,129.5,408.2,130.8z M415.9,83.2c-1.7,2.3-3.3,4.8-4.8,7.6c-1.5,2.7-2.8,5.5-3.9,8.2c-1.1,2.8-2,5.4-2.6,8
		c-0.6,2.6-0.9,4.9-0.9,6.9c0,2.4,0.4,4.7,1.2,7c0.8,2.2,1.7,3.5,2.7,3.8c4.5-1,8.7-2.9,12.5-5.7c3.8-2.8,7.1-6.2,9.8-10.4
		c2.8-4.1,4.9-8.8,6.5-14.1c1.6-5.2,2.3-10.8,2.3-16.8c0-2.6-0.2-4.7-0.5-6.2c-0.3-1.5-0.8-2.8-1.5-3.9c-4.4,1.3-8.4,3.4-11.9,6.4
		C421.4,76.9,418.4,80,415.9,83.2z"/>
	<path d="M456.9,115.9c0-4.4,1.1-10.7,3.2-18.7c2.1-8,5.1-17.4,8.9-28.1c6.3-17,12.1-31.2,17.6-42.6c5.5-11.3,10.9-20.2,16.1-26.5
		c1.2,0.2,2.7,0.7,4.5,1.5c1.8,0.8,3.5,1.7,5.2,2.6c1.7,1,3.3,1.9,4.6,2.9c1.4,1,2.2,1.8,2.6,2.4c-7.9,9.3-14.8,19.3-20.7,29.9
		c-6,10.7-11.4,22.9-16.3,36.8c-4.2,11.9-7.5,22.6-9.7,32.1c-2.2,9.5-3.3,17.5-3.3,23.8c0,1.7,0,2.8,0,3.2c0,0.4,0,0.8,0.2,1.2
		c-1.4-0.2-2.6-0.6-3.6-1.1c-1-0.5-1.7-1.1-2-1.8c-0.2-0.5-0.8-1.2-1.7-2.2c-0.9-1-1.7-1.7-2.4-2.2c-0.9-0.6-1.7-2.2-2.3-4.8
		C457.2,122,456.9,119.1,456.9,115.9z"/>
	<path d="M517.3,52.2c2.6,0.8,5.1,2.6,7.4,5.4c2.3,2.8,4,5.8,5.1,9.2c-1.1,2.7-2.8,6-5.1,9.8c-2.3,3.8-4.6,7.7-7,11.7
		c-2.3,4-4.4,7.8-6.3,11.3c-1.9,3.6-2.9,6.5-3.3,8.8c1.6-1.7,3.4-3.7,5.4-6c2-2.3,3.9-4.5,5.7-6.8c1.9-2.3,3.6-4.3,5.2-6.2
		c1.6-1.9,2.9-3.3,3.8-4.2c1.9-2,4.2-4.4,6.8-7c2.6-2.7,5.4-5.2,8.2-7.6c2.9-2.4,5.8-4.4,8.7-6c2.9-1.7,5.6-2.5,8-2.5
		c2.6,0,4.8,0.9,6.6,2.6c1.8,1.8,3.1,3.6,4.2,5.5c0,0.2-0.4,0.5-1.1,0.8c-0.8,0.4-1.8,1.3-3.3,2.9c-1.4,1.8-3,4.3-4.8,7.5
		c-1.8,3.2-3.5,6.6-5.1,10.3c-1.7,3.7-3.1,7.4-4.2,11.3c-1.1,3.8-1.7,7.3-1.7,10.4c0,2.5,0.3,4.1,1,4.8c0.7,0.7,1.6,1.1,2.8,1.1
		c1.1,0,2.3-0.3,3.5-0.8c1.2-0.5,2.2-0.8,2.9-0.8c0.4,0.2,0.7,0.6,1,1.3c0.2,0.7,0.4,1.2,0.4,1.7c-0.8,0.7-1.8,1.4-2.9,2.1
		c-1.1,0.7-2.3,1.4-3.5,2s-2.4,1.1-3.6,1.5c-1.2,0.4-2.2,0.6-3.1,0.6c-2.9,0-5.3-0.4-7.2-1.3c-1.9-0.9-3.3-2-4.4-3.4
		c-1.1-1.4-1.8-3.1-2.2-5.1c-0.4-2-0.6-4.1-0.6-6.3c0-1.2,0.1-2.6,0.3-4.1c0.2-1.5,0.6-3.3,1.2-5.4c0.6-2.1,1.5-4.5,2.6-7.4
		c1.1-2.9,2.5-6.3,4.2-10.4c-0.2,0-1.6,0.7-4.1,2.1c-2.5,1.4-5.2,3.6-8.2,6.5c-4.7,4.5-9,9-12.8,13.5c-3.8,4.4-7.6,9.4-11.6,14.8
		c-2.2,3.1-4.2,5.8-5.8,7.9c-1.7,2.2-3.1,3.6-4.3,4.3c-2.1-1.2-3.7-2.9-4.7-5.1c-1-2.2-1.8-4.4-2.3-6.7c0-1.9,0.3-4.3,0.8-7.3
		c0.6-2.9,1.3-6.2,2.3-9.8c1-3.6,2.1-7.3,3.6-11.3c1.4-3.9,3-7.9,4.7-11.8c3.8-8.9,7.3-15.8,10.5-20.9
		C514.5,55.3,516.4,52.6,517.3,52.2z"/>
	<path d="M628.6,62.9c-0.4,6.3-1.5,11.6-3.3,16.1c-1.8,4.5-4.4,8.4-7.8,11.8c-3.4,3.4-7.5,6.4-12.3,9.2c-4.8,2.7-10.5,5.3-16.9,7.9
		c0,0.6,0,1.2-0.1,1.9c-0.1,0.7-0.1,1.3-0.1,2c0,1.3,0.1,2.7,0.3,4.1c0.2,1.4,0.6,2.7,1.1,3.9c0.5,1.2,1.2,2.2,2.1,2.9
		c0.9,0.8,2.1,1.1,3.5,1.1c2.7,0,5.4-0.6,8-1.8c2.6-1.2,5.1-2.7,7.5-4.5c2.4-1.8,4.6-3.7,6.7-5.7c2.1-2.1,3.9-4,5.5-5.7
		c1,0.9,1.9,1.8,2.6,2.6c-4.5,6-9.5,11.1-14.9,15c-5.4,4-10.5,6.5-15.4,7.6c-7-0.8-12.4-3.4-16.3-7.6c-3.9-4.3-5.8-9.5-5.8-15.5
		c0-4.1,0.6-8.3,1.7-12.6c1.2-4.3,2.8-8.4,4.8-12.4c2.1-4,4.5-7.7,7.3-11.3c2.8-3.5,5.7-6.6,8.9-9.2c3.2-2.6,6.5-4.7,9.8-6.2
		c3.4-1.5,6.7-2.3,10.1-2.3C620.2,54.9,624.5,57.8,628.6,62.9z M618.1,67.9c-2.7,0.4-5.5,1.5-8.5,3.3c-2.9,1.8-5.7,4.2-8.2,7.3
		s-4.9,6.6-7,10.6c-2.1,4-3.8,8.4-5,13c8.1-4,14.8-9,20.1-14.9C614.9,81.3,617.7,74.9,618.1,67.9z"/>
	<path d="M631.9,122.5c0.5-2.9,1.4-6.8,2.6-11.6c1.3-4.8,2.7-9.9,4.5-15.3c1.7-5.4,3.5-10.8,5.4-16.3c1.9-5.4,3.8-10.3,5.6-14.7
		c1.3-3.1,2.5-5.6,3.5-7.3c1-1.8,2.1-3.3,3.3-4.5c1.4,0.2,2.9,0.6,4.4,1.1c1.5,0.5,3,1.1,4.4,1.8c1.4,0.7,2.7,1.4,3.8,2.2
		c1.1,0.8,2,1.5,2.6,2.2c-2.7,3.2-5.1,6.9-7.2,11c-2.1,4.1-4.2,9.4-6.3,15.9c5.4-4.8,10.3-9.5,14.4-13.9c4.2-4.4,8.1-9.4,11.7-14.8
		c0.6-0.5,1.7-0.8,3.2-0.8c1.4,0,2.8,0.2,4.1,0.7c1.3,0.5,2.2,1.1,2.7,1.9c-1.8,4.8-2.7,9.6-2.7,14.4c0,4.4,0.7,7.8,2,10
		c-0.1,0.6-0.8,1.8-2,3.5c-1.3,1.7-2.6,3.3-4.2,4.8c-2.7-1.4-5.1-3.4-7.3-5.8c-2.1-2.5-3.7-5.2-4.7-8.1c-4.7,3.3-8.8,6.6-12.1,9.8
		c-3.3,3.2-6.2,6.7-8.5,10.6c-2.4,3.9-4.4,8.3-6,13.4c-1.7,5-3.3,11-4.8,18c-0.9-0.1-2-0.4-3.3-1c-1.3-0.6-2.5-1.2-3.8-2
		c-1.3-0.8-2.4-1.7-3.4-2.6C632.9,124.2,632.2,123.3,631.9,122.5z"/>
</g>
</svg>
