<?xml version="1.0" encoding="utf-8"?>
<!-- Generator: Adobe Illustrator 22.0.1, SVG Export Plug-In . SVG Version: 6.00 Build 0)  -->
<svg version="1.1"
	 id="svg2" inkscape:version="0.48.1 r9760" sodipodi:docname="twitter_bootstrap_logo.svg" xmlns:cc="http://creativecommons.org/ns#" xmlns:dc="http://purl.org/dc/elements/1.1/" xmlns:inkscape="http://www.inkscape.org/namespaces/inkscape" xmlns:rdf="http://www.w3.org/1999/02/22-rdf-syntax-ns#" xmlns:sodipodi="http://sodipodi.sourceforge.net/DTD/sodipodi-0.dtd" xmlns:svg="http://www.w3.org/2000/svg"
	 xmlns="http://www.w3.org/2000/svg" xmlns:xlink="http://www.w3.org/1999/xlink" x="0px" y="0px" viewBox="0 0 2000 2008.3"
	 style="enable-background:new 0 0 2000 2008.3;" xml:space="preserve">
<sodipodi:namedview  bordercolor="#666666" borderopacity="1" fit-margin-bottom="0" fit-margin-left="0" fit-margin-right="0" fit-margin-top="0" gridtolerance="10" guidetolerance="10" id="namedview2996" inkscape:current-layer="svg2" inkscape:cx="116.80866" inkscape:cy="407.66551" inkscape:pageopacity="0" inkscape:pageshadow="2" inkscape:window-height="623" inkscape:window-maximized="0" inkscape:window-width="864" inkscape:window-x="0" inkscape:window-y="0" inkscape:zoom="0.24896372" objecttolerance="10" pagecolor="#ffffff" showgrid="false">
	</sodipodi:namedview>
<g id="layer1" transform="matrix(15.623041,0,0,15.623041,-3987.6024,-6644.8835)">
	
		<linearGradient id="rect3050_1_" gradientUnits="userSpaceOnUse" x1="294.3689" y1="481.6834" x2="407.1216" y2="596.4055" gradientTransform="matrix(15.623 0 0 -15.623 -4336.312 8072.5684)">
		<stop  offset="0" style="stop-color:#070135"/>
		<stop  offset="1" style="stop-color:#612D50"/>
	</linearGradient>
	<path id="rect3050" style="fill:url(#rect3050_1_);" d="M275.9,425.3h86.7c11.4,0,20.7,9.3,20.7,20.7v87.2
		c0,11.4-9.3,20.7-20.7,20.7h-86.7c-11.4,0-20.7-9.3-20.7-20.7V446C255.2,434.6,264.5,425.3,275.9,425.3z"/>
	<g id="text3836" transform="scale(1.0052013,0.99482561)">
		<path id="path3841" inkscape:connector-curvature="0" style="fill:#FFFFFF;" d="M318.6,483.2c3.3,0,5.7-0.7,7.4-2.1
			c1.7-1.4,2.5-3.5,2.5-6.3c0-2.8-0.8-4.8-2.5-6.3c-1.7-1.5-4.1-2.2-7.4-2.2h-11.4v16.9L318.6,483.2 M319.3,518.2
			c4.1,0,7.3-0.9,9.3-2.6c2.1-1.8,3.2-4.4,3.2-7.9c0-3.5-1-6.1-3.1-7.8c-2.1-1.8-5.2-2.6-9.4-2.6h-12.1v21H319.3 M338.4,489.4
			c4.4,1.3,7.9,3.7,10.3,7.1c2.4,3.5,3.6,7.7,3.6,12.8c0,7.7-2.6,13.5-7.8,17.3c-5.2,3.8-13.2,5.7-23.8,5.7h-34.3v-80h31
			c11.1,0,19.2,1.7,24.1,5c5,3.4,7.5,8.7,7.5,16.1c0,3.9-0.9,7.2-2.7,10C344.6,486,341.9,488.1,338.4,489.4"/>
	</g>
</g>
</svg>
