<?xml version="1.0" encoding="utf-8"?>
<!-- Generator: Adobe Illustrator 22.0.1, SVG Export Plug-In . SVG Version: 6.00 Build 0)  -->
<svg version="1.1" id="Layer_1" xmlns="http://www.w3.org/2000/svg" xmlns:xlink="http://www.w3.org/1999/xlink" x="0px" y="0px"
	 viewBox="0 0 297.5 419.9" style="enable-background:new 0 0 297.5 419.9;" xml:space="preserve">
<g>
	<g>
		<polygon style="fill:#151515;" points="233.1,15.5 208.4,15.5 234.1,43.4 234.1,56.7 181.2,56.7 181.2,41.1 206.9,41.1 
			181.2,13.3 181.2,0 233.1,0 		"/>
		<polygon style="fill:#151515;" points="170.7,15.5 146,15.5 171.7,43.4 171.7,56.7 118.8,56.7 118.8,41.1 144.5,41.1 118.8,13.3 
			118.8,0 170.7,0 		"/>
		<polygon style="fill:#151515;" points="108.9,16.2 82.3,16.2 82.3,40.5 108.9,40.5 108.9,56.7 63.4,56.7 63.4,0 108.9,0 		"/>
	</g>
	<polygon style="fill:#1673B6;" points="27.1,386.2 0,82.5 297.5,82.5 270.4,386.1 148.5,419.9 	"/>
	<polygon style="fill:#35A9DB;" points="148.7,394.1 247.2,366.8 270.3,107.4 148.7,107.4 	"/>
	<g>
		<polygon style="fill:#FFFFFF;" points="148.7,217.4 198,217.4 201.4,179.2 148.7,179.2 148.7,142 148.9,142 242.1,142 241.2,152 
			232.1,254.6 148.7,254.6 		"/>
		<polygon style="fill:#EBEBEB;" points="148.9,314.1 148.8,314.1 107.3,302.9 104.7,273.2 84.5,273.2 67.3,273.2 72.5,331.7 
			148.8,352.9 148.9,352.8 		"/>
		<polygon style="fill:#FFFFFF;" points="194.8,253 190.4,302.9 148.8,314.1 148.8,352.8 225.2,331.7 225.7,325.4 232.2,253 		"/>
		<polygon style="fill:#EBEBEB;" points="148.9,142 148.9,165.1 148.9,179.1 148.9,179.2 59,179.2 59,179.2 58.9,179.2 58.2,170.9 
			56.5,152 55.6,142 		"/>
		<polygon style="fill:#EBEBEB;" points="148.7,217.4 148.7,240.5 148.7,254.5 148.7,254.6 107.9,254.6 107.9,254.6 107.8,254.6 
			107,246.2 105.3,227.4 104.4,217.4 		"/>
	</g>
</g>
</svg>
