<?xml version="1.0" encoding="utf-8"?>
<!-- Generator: Adobe Illustrator 22.0.1, SVG Export Plug-In . SVG Version: 6.00 Build 0)  -->
<svg version="1.1" id="Layer_1" xmlns="http://www.w3.org/2000/svg" xmlns:xlink="http://www.w3.org/1999/xlink" x="0px" y="0px"
	 viewBox="0 0 297.5 419.9" style="enable-background:new 0 0 297.5 419.9;" xml:space="preserve">
<g>
	<polygon style="fill:#E45126;" points="27.1,386.1 0,82.5 297.5,82.5 270.4,386.1 148.5,419.9 	"/>
	<polygon style="fill:#F1682B;" points="148.7,394 247.2,366.8 270.3,107.3 148.7,107.3 	"/>
	<polygon style="fill:#EBEBEB;" points="148.7,219.9 99.4,219.9 96,181.8 148.7,181.8 148.7,144.6 148.6,144.6 55.3,144.6 
		56.2,154.6 65.4,257.2 148.7,257.2 	"/>
	<polygon style="fill:#EBEBEB;" points="148.7,316.7 148.6,316.7 107.1,305.5 104.4,275.8 84.3,275.8 67.1,275.8 72.3,334.3 
		148.6,355.4 148.7,355.4 	"/>
	<g>
		<path style="fill:#020202;" d="M27.7,0h18.9v18.7h17.3V0h18.9v56.6H63.9v-19H46.6v19H27.7V0L27.7,0z"/>
		<path style="fill:#020202;" d="M107.7,18.8H91.1V0h52.3v18.8h-16.7v37.8h-18.9L107.7,18.8L107.7,18.8z"/>
		<path style="fill:#020202;" d="M151.6,0h19.7l12.1,19.9L195.6,0h19.7v56.6h-18.8V28.6l-13,20.1h-0.3l-13-20.1v28.1h-18.5L151.6,0
			L151.6,0z"/>
		<path style="fill:#020202;" d="M224.8,0h18.9v37.9h26.6v18.7h-45.5L224.8,0L224.8,0z"/>
	</g>
	<polygon style="fill:#FFFFFF;" points="148.6,219.9 148.6,257.2 194.4,257.2 190.1,305.5 148.6,316.7 148.6,355.4 224.9,334.3 
		225.5,328 234.2,229.9 235.2,219.9 225.1,219.9 	"/>
	<polygon style="fill:#FFFFFF;" points="148.6,144.6 148.6,167.7 148.6,181.7 148.6,181.8 238.4,181.8 238.4,181.8 238.5,181.8 
		239.3,173.4 241,154.6 241.9,144.6 	"/>
</g>
</svg>
