<?xml version="1.0" encoding="utf-8"?>
<!-- Generator: Adobe Illustrator 22.0.1, SVG Export Plug-In . SVG Version: 6.00 Build 0)  -->
<svg version="1.1" id="Layer_1" xmlns="http://www.w3.org/2000/svg" xmlns:xlink="http://www.w3.org/1999/xlink" x="0px" y="0px"
	 viewBox="0 0 297.5 420" style="enable-background:new 0 0 297.5 420;" xml:space="preserve">
<g>
	<polygon style="fill:#E4A227;" points="27.1,386.2 0,82.6 297.4,82.6 270.4,386.2 148.5,420 	"/>
	<polygon style="fill:#F0BF26;" points="148.5,393.8 246.9,366.5 270.1,107.1 148.5,107.1 	"/>
	<g>
		<polygon style="fill:#151515;" points="201.7,15.5 177,15.5 202.6,43.4 202.6,56.7 149.8,56.7 149.8,41.1 175.4,41.1 149.8,13.3 
			149.8,0 201.7,0 		"/>
		<path style="fill:#020202;" d="M140.3,0v56.6H94.8V37.9h26.6V0H140.3L140.3,0z"/>
	</g>
	<polygon style="fill:#EBEBEB;" points="148.4,316.4 148.3,316.4 106.8,305.2 104.1,275.6 84,275.6 66.8,275.6 72,334 148.2,355.2 
		148.4,355.1 	"/>
	<polygon style="fill:#EBEBEB;" points="153.4,256.9 153.4,219.7 107.6,219.7 113,161.2 153.5,160.2 153.4,121.4 79.3,121.4 
		76.5,148.9 67.8,246.9 66.9,256.9 76.9,256.9 	"/>
	<polygon style="fill:#FFFFFF;" points="153.2,160.2 153.3,160.2 194,162.6 197.5,201.1 217.6,201.1 234.8,201.1 228.3,129.1 
		153.4,121.4 153.2,121.5 	"/>
	<polyline style="fill:#FFFFFF;" points="231,160.3 227.8,121.4 149.2,121.4 149.2,145.6 149.2,160.2 149.2,160.3 231,160.3 	"/>
	<polygon style="fill:#FFFFFF;" points="148.3,219.7 148.3,256.9 194.1,256.9 189.8,305.2 148.3,316.4 148.3,355.2 224.6,334 
		225.2,327.7 233.9,229.7 234.8,219.7 224.8,219.7 	"/>
	<path style="fill:#FFFFFF;" d="M226.2,158.7"/>
</g>
</svg>
