<?xml version="1.0" encoding="utf-8"?>
<!-- Generator: Adobe Illustrator 22.0.1, SVG Export Plug-In . SVG Version: 6.00 Build 0)  -->
<svg version="1.1" id="Layer_1" xmlns="http://www.w3.org/2000/svg" xmlns:xlink="http://www.w3.org/1999/xlink" x="0px" y="0px"
	 viewBox="0 0 861.3 945.1" style="enable-background:new 0 0 861.3 945.1;" xml:space="preserve">
<g id="Layer_1_1_">
	<path style="fill:#81C365;" d="M178.2,25.3c94-24,189.4-28.1,246.6-23.8c31.5,0,54.6,0.1,77.6,0c31.6-0.1,62.4,5.6,93.4,10.8
		c24.1,4,48.3,7.4,71.9,13.5c44.6,11.5,87.1,27.2,126.1,52.9c21.3,14.1,35.6,32.2,42.6,54.7c9.8,31.6,15.9,64.1,20,97.4
		c4.3,34.7,5.1,69.2,4.7,103.9c-0.7,60.1-12.2,118.7-25.7,177c-13.4,58-39.2,110.8-71.6,159.3c-40.2,60.1-87.6,114.6-144.6,160.8
		c-50.7,41-104.8,75.9-162.2,106.5c-18.5,9.9-34.2,8.5-52.8-0.2c-56.3-26.5-109.2-58.8-156.3-98.6
		C163.8,768.1,91.9,686.1,48.8,582.4c-16.1-38.7-26.9-78.9-35.9-119.8C-3.8,386.9-0.5,310.3,2.3,234.1c1.4-39.5,12.1-78.6,28-115.8
		c8.2-19.3,55.8-55.5,73.9-65L178.2,25.3z"/>
	<path style="fill:#41301F;" d="M164.2,97.3c31.6-6.8,133.5-20,165.3-24.8c49.8-7.5,99.4-5.5,148.9-4.1
		c71.3,2,142.2,10.6,209.9,35.4c21.8,8,43.7,15.1,63.5,28.9c11.5,8.1,18.2,15.9,21.6,29.2c7.7,30.3,16.1,60.2,16.5,91.9
		c0.2,16.6,6,33.2,5,49.6c-4.3,66.3-8.8,132.1-27.9,196.9c-17.4,59.2-43.3,112.3-80.3,160.8c-14.9,19.6-29.4,39.7-46.2,57.6
		C579.8,783,510.5,836,428.9,873.8c-52.3-22.8-98.4-53.3-139.5-89.1C219.9,724,156.4,656.9,117.7,571.2
		c-17.9-39.7-29.9-81.6-38.8-124.6c-12.5-60.8-13.3-122-11-183.3c1.4-37,9.7-73.3,19.4-109c2.8-10.3,28.5-35.1,38.9-41L164.2,97.3z"
		/>
</g>
<g id="Layer_2_1_">
	<g>
		<path style="fill:#FFFFFF;" d="M440.3,804.2l-18.5-6.3c0,0,2.3-94.2-31.5-100.9c-22.5-26.1,3.6-1108.5,84.7-3.6
			c0,0-27.9,14-32.9,37.9C436.7,754.7,440.3,804.2,440.3,804.2L440.3,804.2z"/>
		<path style="fill:#A6A385;" d="M440.3,804.2l-18.5-6.3c0,0,2.3-94.2-31.5-100.9c-22.5-26.1,3.6-1108.5,84.7-3.6
			c0,0-27.9,14-32.9,37.9C436.7,754.7,440.3,804.2,440.3,804.2L440.3,804.2z"/>
		<path style="fill:#FFFFFF;" d="M450.3,713.2c0,0,161.8-106.3,123.9-327.6c-36.5-160.9-122.6-213.6-132-233.9
			c-10.4-14.4-20.3-39.6-20.3-39.6l6.8,447.4C428.6,560,414.7,696.5,450.3,713.2"/>
		<path style="fill:#499D4A;" d="M450.3,713.2c0,0,161.8-106.3,123.9-327.6c-36.5-160.9-122.6-213.6-132-233.9
			c-10.4-14.4-20.3-39.6-20.3-39.6l6.8,447.4C428.6,560,414.7,696.5,450.3,713.2"/>
		<path style="fill:#FFFFFF;" d="M412.4,719.1c0,0-151.9-103.6-142.8-286.1c8.6-182.5,115.8-272.2,136.5-288.4
			c13.5-14.4,14-19.8,14.9-34.2c9.5,20.3,7.7,303.3,9,336.6C434,575.3,422.8,694.7,412.4,719.1z"/>
		<path style="fill:#58AA50;" d="M412.4,719.1c0,0-151.9-103.6-142.8-286.1c8.6-182.5,115.8-272.2,136.5-288.4
			c13.5-14.4,14-19.8,14.9-34.2c9.5,20.3,7.7,303.3,9,336.6C434,575.3,422.8,694.7,412.4,719.1z"/>
	</g>
</g>
</svg>
