<?xml version="1.0" encoding="utf-8"?>
<!-- Generator: Adobe Illustrator 22.0.1, SVG Export Plug-In . SVG Version: 6.00 Build 0)  -->
<svg version="1.1" id="Layer_1" xmlns="http://www.w3.org/2000/svg" xmlns:xlink="http://www.w3.org/1999/xlink" x="0px" y="0px"
	 viewBox="0 0 485.3 482.3" style="enable-background:new 0 0 485.3 482.3;" xml:space="preserve">
<g>
	<g>
		<path style="fill:#577FA2;" d="M138.5,22.4c53.3-29.9,155.1-29.9,208.3,0c2.5,2.2,6.2,3.2,9.2,5c5.9,2.8,10.7,6.6,16.7,9.2
			c2.4,2.9,6.2,4.3,9.2,6.7c9.9,6.5,18.1,14.6,27.5,21.7c5.9,6,11,12.9,17.5,18.3c3.6,6.2,8.7,10.8,12.5,16.7
			c3.5,4.6,6,10.1,10,14.2c1.6,4.8,4.6,8.2,6.7,12.5c2.3,4.1,3.9,8.9,6.7,12.5c10.6,24.7,19.2,51.4,21.7,84.2
			c0.5,2.5-1.1,7.2,0.8,8.3c0,6.4,0,12.8,0,19.2c-1.9,1.2-0.3,5.8-0.8,8.3c-2.5,32.8-11.1,59.4-21.7,84.2c-2.8,3.6-4.3,8.4-6.7,12.5
			c-2.1,4.3-5.1,7.7-6.7,12.5c-4,4-6.5,9.6-10,14.2c-3.8,5.9-8.9,10.5-12.5,16.7c-6.5,5.5-11.6,12.3-17.5,18.3
			c-9.4,7-17.6,15.2-27.5,21.7c-2.9,2.3-6.8,3.8-9.2,6.7c-6,2.6-10.8,6.4-16.7,9.2c-3,1.8-6.7,2.8-9.2,5
			c-53.3,29.9-155.1,29.9-208.3,0c-2.5-2.2-6.2-3.2-9.2-5c-5.9-2.8-10.7-6.6-16.7-9.2c-2.4-2.9-6.2-4.3-9.2-6.7
			c-9.9-6.5-18.1-14.6-27.5-21.7c-5.9-6-11-12.9-17.5-18.3c-3.6-6.2-8.7-10.8-12.5-16.7c-3.5-4.6-6-10.1-10-14.2
			c-1.6-4.8-4.6-8.2-6.7-12.5c-2.3-4.1-3.9-8.9-6.7-12.5C12.1,318.5,3.5,291.9,1,259.1c-0.5-2.5,1.1-7.2-0.8-8.3
			c0-6.4,0-12.8,0-19.2c1.9-1.2,0.3-5.8,0.8-8.3c2.5-32.8,11.1-59.4,21.7-84.2c2.8-3.6,4.3-8.4,6.7-12.5c2.1-4.3,5.1-7.7,6.7-12.5
			c4-4,6.5-9.6,10-14.2c3.8-5.9,8.9-10.5,12.5-16.7C64.9,77.8,70,70.9,76,64.9c9.4-7,17.6-15.2,27.5-21.7c2.9-2.3,6.8-3.8,9.2-6.7
			c6-2.6,10.8-6.4,16.7-9.2C132.2,25.6,136,24.6,138.5,22.4z M228.5,6.6c-47,2.7-81.7,17.7-112.5,36.7c-3.2,2-7,3.5-9.2,6.7
			c-5.7,2.4-9.5,6.7-14.2,10c-4.3,3.7-9.1,7-12.5,11.7c-11,8.8-19.6,19.8-27.5,31.7c-4.3,3.8-6.8,9.3-10,14.2
			c-2.3,4.1-5.3,7.5-6.7,12.5c-3.2,3.2-4.8,7.9-6.7,12.5c-11.1,24.1-19.9,50.7-21.7,84.2c-1.9,1.2-0.3,5.8-0.8,8.3
			c0,4.2,0,8.3,0,12.5c0.5,2.5-1.1,7.2,0.8,8.3c1.8,33.5,10.5,60,21.7,84.2c1.8,4.6,3.5,9.3,6.7,12.5c1.4,5,4.3,8.4,6.7,12.5
			c3.2,4.9,5.7,10.4,10,14.2c7.9,11.9,16.5,22.9,27.5,31.7c3.4,4.7,8.2,7.9,12.5,11.7c4.7,3.3,8.5,7.6,14.2,10
			c2.2,3.1,5.9,4.6,9.2,6.7c30.8,19,65.5,33.9,112.5,36.7c7.5,1.4,20.8,1.4,28.3,0c47-2.7,81.7-17.7,112.5-36.7c3.2-2,7-3.5,9.2-6.7
			c5.7-2.4,9.5-6.7,14.2-10c4.3-3.7,9.1-7,12.5-11.7c11-8.8,19.6-19.8,27.5-31.7c4.3-3.8,6.8-9.3,10-14.2c2.3-4.1,5.3-7.5,6.7-12.5
			c3.2-3.2,4.8-7.9,6.7-12.5c11.1-24.1,19.9-50.7,21.7-84.2c1.9-1.2,0.3-5.8,0.8-8.3c0-4.2,0-8.3,0-12.5c-0.5-2.5,1.1-7.2-0.8-8.3
			c-1.8-33.5-10.5-60-21.7-84.2c-1.8-4.6-3.5-9.3-6.7-12.5c-1.4-5-4.3-8.4-6.7-12.5c-3.2-4.9-5.7-10.4-10-14.2
			c-7.9-11.9-16.5-22.9-27.5-31.7c-3.4-4.7-8.2-7.9-12.5-11.7c-4.7-3.3-8.5-7.6-14.2-10c-2.1-3.1-5.9-4.6-9.2-6.7
			c-30.8-19-65.5-33.9-112.5-36.7C249.3,5.2,236,5.2,228.5,6.6z"/>
		<path style="fill:#FFA230;" d="M190.1,193.2c-11.7-17.7-24.1-33.2-24.2-61.7c-0.2-55.4,25.5-111.4,79.2-119.2
			c1.2,1.9,5.8,0.3,8.3,0.8c46.3,3.5,81,18.4,112.5,36.7c2.4,2.9,6.2,4.3,9.2,6.7c2.4,1.3,3.5,3.7,6.7,4.2
			c10.8,9.5,21.7,18.9,31.7,29.2c3.6,6.2,8.7,10.8,12.5,16.7c3.5,4.6,6,10.1,10,14.2c1.6,4.8,4.6,8.2,6.7,12.5
			c2.3,4.1,3.9,8.9,6.7,12.5c27.9,50.4,27.9,140.5,0,190.8c-2.8,3.6-4.3,8.4-6.7,12.5c-2.1,4.3-5.1,7.7-6.7,12.5
			c-4,4-6.5,9.6-10,14.2c-3.8,5.9-8.9,10.5-12.5,16.7c-10,10.3-20.8,19.7-31.7,29.2c-3.1,0.5-4.3,2.9-6.7,4.2
			c-2.9,2.3-6.8,3.8-9.2,6.7c-29.1,17-61.3,30.9-102.5,35.8c38.9-17.2,59.7-52.5,67.5-100.8c1.9-1.7,0.3-6.9,0.8-10
			c1.1-36.6-7.9-63.2-25-81.7c-3.3-4-6.9-7.6-10.8-10.8c-28.4-24.1-65.9-39.1-95.8-61.7C197.1,199.5,193.8,196.2,190.1,193.2z
			 M331,105.7c-16.3-13.1-31.1-27.8-60-28.3c-8.3-10.1-41.8-23.3-43.3-2.5c-0.9,12.4,13,20.4,17.5,30c7.7,16.4,9.1,34.2,19.2,41.7
			c-11,16.6-7.2,72.1,14.2,70c10-1,6.6-14.3,10.8-22.5c4.6,13.2,12.9,22.6,23.3,30c2.9,3.5,7.8,9.4,11.7,9.2
			c-3.6-2.3-5.6-6.1-9.2-8.3c-11-14.5-19.3-31.8-27.5-49.2c-7.7,7-9.2,20.3-11.7,32.5c-7.2-4.7-9.4-14.5-10.8-25c0-4.4,0-8.9,0-13.3
			c-1.1-9.5,7.8-16.4,5.8-25.8c-0.7-3.4-5.8-7.2-7.5-10c-5.5-8.9-7.2-21.1-12.5-31.7c-5.5-11-15.7-18-15.8-29.2
			c12.4-3.9,23.9,6.4,31.7,12.5c24-0.4,37.4,9.3,50,19.2c21.4,16.8,30.4,34.8,42.5,60.8c4.9,10.6,10.2,28.5,18.3,34.2
			c7.8,5.5,17.8,6,25.8,10.8c7.8,4.7,15.2,8.1,21.7,15.8c-14.4-0.7-25.6,1.6-34.2,6.7c3.6,11.3,13.2,17.8,23.3,23.3
			c10.1,5.5,20.4,11.4,28.3,16.7c-8.2-16.8-27.1-22.9-38.3-36.7c10.4-1.8,20.8-3.7,30.8-5.8c-10.9-18.8-30.1-29.3-51.7-37.5
			c-15.4-25.7-23.2-59.1-44.2-79.2C336.9,110.9,334.1,108.2,331,105.7z M271,99.9c1.8,5.1,6.4,7.5,7.5,13.3
			C286.8,110.3,281.1,96.8,271,99.9z"/>
		<path style="fill:#FFCE92;" d="M245.1,12.4c2.5,0.5,7.2-1.1,8.3,0.8C250.9,12.7,246.3,14.3,245.1,12.4z"/>
		<path style="fill:#577FA2;" d="M145.1,35.7c20.1-8.5,40.9-16.3,65.8-20c0.7,2.4-5.3,4-9.2,6.7c-25.4,17.5-42.8,49.8-46.7,90
			c-1.9,3.1-0.3,9.7-0.8,14.2c0.5,89.8,78.6,101.9,129.2,141.7c3,3.7,6.3,7,10,10c11.4,15.8,24.8,34.4,25.8,62.5
			c1.3,33.7-8.6,73.1-25.8,91.7c-3.1,2.4-5.9,5.2-8.3,8.3c-12.9,13.7-28,24.8-50,27.5c-31.2,3.8-66.1-13.4-90-21.7
			c-2.5-2.2-6.2-3.2-9.2-5c-5.9-2.8-10.7-6.6-16.7-9.2c-2.4-2.9-6.2-4.3-9.2-6.7c-9.9-6.5-18.1-14.6-27.5-21.7
			c-3.3-4.2-6.5-8.5-10.8-11.7c-3.6-6.2-8.7-10.8-12.5-16.7c-3.5-4.6-6-10.1-10-14.2c-1.6-4.8-4.6-8.2-6.7-12.5
			c-2.3-4.1-3.9-8.9-6.7-12.5c-10.6-24.7-19.2-51.4-21.7-84.2c-0.5-2.5,1.1-7.2-0.8-8.3c0-1.9,0-3.9,0-5.8c1.9-1.2,0.3-5.8,0.8-8.3
			c2.5-32.8,11.1-59.4,21.7-84.2c2.8-3.6,4.3-8.4,6.7-12.5c2.1-4.3,5.1-7.7,6.7-12.5c4-4,6.5-9.6,10-14.2
			c3.8-5.9,8.9-10.5,12.5-16.7c4.4-3.1,7.5-7.5,10.8-11.7c9.4-7,17.6-15.2,27.5-21.7c2.9-2.3,6.8-3.8,9.2-6.7
			c6-2.6,10.8-6.4,16.7-9.2C138.9,39,142.6,38,145.1,35.7z M223.5,310.7c1.1,9.5-7.8,16.4-5.8,25.8c0.7,3.4,5.8,7.2,7.5,10
			c5.5,8.9,7.2,21.1,12.5,31.7c5.5,11,15.8,18,15.8,29.2c-12.4,3.9-23.9-6.4-31.7-12.5c-24,0.5-37.5-9.4-50-19.2
			c-21.3-16.7-30.7-34.9-42.5-60.8c-4.8-10.6-10.3-28.5-18.3-34.2c-8-5.6-18.8-5.1-26.7-10c-8.1-5-13.9-9.8-20.8-16.7
			c14.4,0.8,25.4-1.8,34.2-6.7c-4.6-17.5-23.8-21.6-37.5-30c-5.4-3.3-8.5-9-14.2-10c8.3,16.7,27.1,22.9,38.3,36.7
			c-10.2,2-20.9,3.6-30.8,5.8c11,18.7,30.2,29.3,51.7,37.5c15.4,25.7,23.2,59.1,44.2,79.2c2.4,3.1,5.2,5.9,8.3,8.3
			c16.3,13.1,31.1,27.8,60,28.3c8.4,10.1,41.7,23.3,43.3,2.5c0.9-12.3-13-20.5-17.5-30c-7.7-16.4-9.2-34.2-19.2-41.7
			c11-16.4,7.2-72.3-14.2-70c-9.9,1.1-6.5,14.3-10.8,22.5c-4.5-12.8-12.3-22.2-22.5-29.2c-3.3-3.7-8.2-10.1-12.5-10
			c3.8,2.6,6.2,6.6,10,9.2c9.4,14.8,19.5,28.8,25,47.5c10.7-4.3,10-20,13.3-31.7c7.3,4.3,9.1,14.3,10.8,24.2
			C223.5,301.3,223.5,306,223.5,310.7z M217.6,380.7c-1.7-5.3-6.6-7.3-7.5-13.3C202,370.5,207.4,383.7,217.6,380.7z"/>
		<path style="fill:#ADC0D1;" d="M155.1,112.4c-0.5,4.5,1.1,11.1-0.8,14.2C154.8,122.1,153.2,115.5,155.1,112.4z"/>
		<path style="fill:#FFCE92;" d="M265.1,169.9c0,4.4,0,8.9,0,13.3C263.7,180.7,263.7,172.4,265.1,169.9z"/>
		<path style="fill:#ADC0D1;" d="M0.1,231.6c0.5-2.5-1.1-7.2,0.8-8.3C0.4,225.8,2,230.4,0.1,231.6z"/>
		<path style="fill:#ADC0D1;" d="M484.3,223.2c1.9,1.2,0.3,5.8,0.8,8.3C483.2,230.4,484.8,225.8,484.3,223.2z"/>
		<path style="fill:#ADC0D1;" d="M7.6,226.6c0,2.8,0,5.6,0,8.3c-0.3,0-0.6,0-0.8,0C7.3,232.4,5.7,227.7,7.6,226.6z"/>
		<path style="fill:#ADC0D1;" d="M477.6,226.6c1.9,1.2,0.3,5.8,0.8,8.3c-0.3,0-0.6,0-0.8,0C477.6,232.1,477.6,229.3,477.6,226.6z"/>
		<path style="fill:#ADC0D1;" d="M13.5,238.2c0.5-2.5-1.1-7.2,0.8-8.3C13.8,232.4,15.4,237.1,13.5,238.2z"/>
		<path style="fill:#FEFEFE;" d="M6.8,234.9c0.3,0,0.6,0,0.8,0c0,4.2,0,8.3,0,12.5c-0.3,0-0.6,0-0.8,0
			C6.8,243.2,6.8,239.1,6.8,234.9z"/>
		<path style="fill:#FEFEFE;" d="M477.6,234.9c0.3,0,0.6,0,0.8,0c0,4.2,0,8.3,0,12.5c-0.3,0-0.6,0-0.8,0
			C477.6,243.2,477.6,239.1,477.6,234.9z"/>
		<path style="fill:#ADC0D1;" d="M13.5,244.1c1.9,1.2,0.3,5.8,0.8,8.3C12.4,251.2,14,246.6,13.5,244.1z"/>
		<path style="fill:#ADC0D1;" d="M6.8,247.4c0.3,0,0.6,0,0.8,0c0,2.8,0,5.6,0,8.3C5.7,254.6,7.3,249.9,6.8,247.4z"/>
		<path style="fill:#ADC0D1;" d="M477.6,247.4c0.3,0,0.6,0,0.8,0c-0.5,2.5,1.1,7.2-0.8,8.3C477.6,253,477.6,250.2,477.6,247.4z"/>
		<path style="fill:#ADC0D1;" d="M0.1,250.7c1.9,1.2,0.3,5.8,0.8,8.3C-0.9,257.9,0.7,253.3,0.1,250.7z"/>
		<path style="fill:#ADC0D1;" d="M485.1,250.7c-0.5,2.5,1.1,7.2-0.8,8.3C484.8,256.5,483.2,251.9,485.1,250.7z"/>
		<path style="fill:#ADC0D1;" d="M223.5,296.6c1.4,2.8,1.4,11.4,0,14.2C223.5,306,223.5,301.3,223.5,296.6z"/>
		<path style="fill:#FFCE92;" d="M331,367.4c0.5-3.1-1.1-8.3,0.8-10C331.3,360.5,332.9,365.7,331,367.4z"/>
		<path style="fill:#ADC0D1;" d="M129.3,27.4c2.1-2.6,5.7-3.7,9.2-5C136,24.6,132.2,25.6,129.3,27.4z"/>
		<path style="fill:#ADC0D1;" d="M103.5,43.2c2.2-3.1,5.9-4.6,9.2-6.7C110.3,39.5,106.4,40.9,103.5,43.2z"/>
		<path style="fill:#ADC0D1;" d="M58.5,83.2c5.7-6.2,10.9-13,17.5-18.3C70,70.9,64.9,77.8,58.5,83.2z"/>
		<path style="fill:#ADC0D1;" d="M36,114.1c3.2-4.9,5.7-10.4,10-14.2C42.5,104.5,40,110,36,114.1z"/>
		<path style="fill:#ADC0D1;" d="M22.6,139.1c1.8-4.6,3.5-9.3,6.7-12.5C27,130.6,25.4,135.5,22.6,139.1z"/>
		<path style="fill:#ADC0D1;" d="M22.6,343.2c2.8,3.6,4.3,8.4,6.7,12.5C26.1,352.6,24.5,347.8,22.6,343.2z"/>
		<path style="fill:#ADC0D1;" d="M46,382.4c-4.3-3.8-6.8-9.3-10-14.2C40,372.3,42.5,377.8,46,382.4z"/>
		<path style="fill:#ADC0D1;" d="M76,417.4c-6.6-5.3-11.8-12.1-17.5-18.3C64.9,404.5,70,411.4,76,417.4z"/>
		<path style="fill:#ADC0D1;" d="M112.6,445.7c-3.2-2-7-3.5-9.2-6.7C106.4,441.4,110.3,442.8,112.6,445.7z"/>
		<path style="fill:#ADC0D1;" d="M138.5,459.9c-3.5-1.3-7.1-2.4-9.2-5C132.2,456.7,136,457.7,138.5,459.9z"/>
		<path style="fill:#ADC0D1;" d="M346.8,459.9c2.5-2.2,6.2-3.2,9.2-5C353.9,457.5,350.3,458.6,346.8,459.9z"/>
		<path style="fill:#ADC0D1;" d="M372.6,445.7c2.4-2.9,6.2-4.3,9.2-6.7C379.6,442.2,375.9,443.7,372.6,445.7z"/>
		<path style="fill:#ADC0D1;" d="M409.3,417.4c5.9-6,11-12.9,17.5-18.3C421.1,405.3,415.9,412.1,409.3,417.4z"/>
		<path style="fill:#ADC0D1;" d="M449.3,368.2c-3.2,4.9-5.7,10.4-10,14.2C442.8,377.8,445.3,372.3,449.3,368.2z"/>
		<path style="fill:#ADC0D1;" d="M462.6,343.2c-1.8,4.6-3.5,9.3-6.7,12.5C458.3,351.7,459.8,346.8,462.6,343.2z"/>
		<path style="fill:#ADC0D1;" d="M456,126.6c3.2,3.2,4.8,7.9,6.7,12.5C459.8,135.5,458.3,130.6,456,126.6z"/>
		<path style="fill:#ADC0D1;" d="M439.3,99.9c4.3,3.8,6.8,9.3,10,14.2C445.3,110,442.8,104.5,439.3,99.9z"/>
		<path style="fill:#ADC0D1;" d="M409.3,64.9c6.6,5.3,11.8,12.1,17.5,18.3C420.3,77.8,415.2,70.9,409.3,64.9z"/>
		<path style="fill:#ADC0D1;" d="M372.6,36.6c3.2,2,7,3.5,9.2,6.7C378.9,40.9,375,39.5,372.6,36.6z"/>
		<path style="fill:#ADC0D1;" d="M346.8,22.4c3.5,1.3,7.1,2.4,9.2,5C353,25.6,349.3,24.6,346.8,22.4z"/>
		<path style="fill:#ADC0D1;" d="M106.8,49.9c2.2-3.1,5.9-4.6,9.2-6.7C113.6,46.1,109.7,47.5,106.8,49.9z"/>
		<path style="fill:#ADC0D1;" d="M80.1,71.6c3.4-4.7,8.2-7.9,12.5-11.7C89.1,64.4,84.2,67.6,80.1,71.6z"/>
		<path style="fill:#ADC0D1;" d="M42.6,117.4c3.2-4.9,5.7-10.4,10-14.2C49.2,107.8,46.6,113.4,42.6,117.4z"/>
		<path style="fill:#ADC0D1;" d="M29.3,142.4c1.8-4.6,3.5-9.3,6.7-12.5C33.6,134,32.1,138.8,29.3,142.4z"/>
		<path style="fill:#ADC0D1;" d="M29.3,339.9c2.8,3.6,4.3,8.4,6.7,12.5C32.8,349.2,31.1,344.5,29.3,339.9z"/>
		<path style="fill:#ADC0D1;" d="M42.6,364.9c4,4,6.5,9.6,10,14.2C48.4,375.3,45.8,369.8,42.6,364.9z"/>
		<path style="fill:#ADC0D1;" d="M80.1,410.7c4.1,4,9,7.1,12.5,11.7C88.3,418.7,83.5,415.4,80.1,410.7z"/>
		<path style="fill:#ADC0D1;" d="M106.8,432.4c2.9,2.3,6.8,3.8,9.2,6.7C112.7,437,108.9,435.5,106.8,432.4z"/>
		<path style="fill:#ADC0D1;" d="M369.3,439.1c2.4-2.9,6.2-4.3,9.2-6.7C376.3,435.5,372.5,437,369.3,439.1z"/>
		<path style="fill:#ADC0D1;" d="M392.6,422.4c3.5-4.5,8.4-7.7,12.5-11.7C401.8,415.4,396.9,418.7,392.6,422.4z"/>
		<path style="fill:#ADC0D1;" d="M432.6,379.1c3.5-4.6,6-10.1,10-14.2C439.5,369.8,436.9,375.3,432.6,379.1z"/>
		<path style="fill:#ADC0D1;" d="M449.3,352.4c2.3-4.1,3.9-8.9,6.7-12.5C454.1,344.5,452.5,349.2,449.3,352.4z"/>
		<path style="fill:#ADC0D1;" d="M456,142.4c-2.8-3.6-4.3-8.4-6.7-12.5C452.5,133.1,454.1,137.8,456,142.4z"/>
		<path style="fill:#ADC0D1;" d="M442.6,117.4c-4-4-6.5-9.6-10-14.2C436.9,107,439.5,112.5,442.6,117.4z"/>
		<path style="fill:#ADC0D1;" d="M392.6,59.9c4.3,3.7,9.1,7,12.5,11.7C401.1,67.6,396.2,64.4,392.6,59.9z"/>
		<path style="fill:#ADC0D1;" d="M378.5,49.9c-2.9-2.3-6.8-3.8-9.2-6.7C372.5,45.3,376.3,46.8,378.5,49.9z"/>
		<path style="fill:#FFCE92;" d="M190.1,193.2c3.7,3,7,6.3,10,10C196.4,200.2,193.1,196.9,190.1,193.2z"/>
		<path style="fill:#FFCE92;" d="M296,264.9c4,3.3,7.6,6.9,10.8,10.8C302.8,272.5,299.2,268.9,296,264.9z"/>
		<path style="fill:#FFCE92;" d="M366,432.4c2.4-2.9,6.2-4.3,9.2-6.7C373,428.9,369.2,430.4,366,432.4z"/>
		<path style="fill:#FFCE92;" d="M381.8,421.6c10.8-9.5,21.7-18.9,31.7-29.2C404.2,403.4,393.4,412.9,381.8,421.6z"/>
		<path style="fill:#FFCE92;" d="M436,361.6c-3.2,4.9-5.7,10.4-10,14.2C429.4,371.1,432,365.6,436,361.6z"/>
		<path style="fill:#FFCE92;" d="M449.3,336.6c-1.8,4.6-3.5,9.3-6.7,12.5C445,345,446.5,340.2,449.3,336.6z"/>
		<path style="fill:#FFCE92;" d="M442.6,133.2c3.2,3.2,4.8,7.9,6.7,12.5C446.5,142.1,445,137.3,442.6,133.2z"/>
		<path style="fill:#FFCE92;" d="M426,106.6c4.3,3.8,6.8,9.3,10,14.2C432,116.7,429.4,111.2,426,106.6z"/>
		<path style="fill:#FFCE92;" d="M381.8,60.7c11.6,8.7,22.4,18.2,31.7,29.2C403.5,79.6,392.6,70.2,381.8,60.7z"/>
		<path style="fill:#FFCE92;" d="M366,49.9c3.2,2,7,3.5,9.2,6.7C372.2,54.2,368.3,52.8,366,49.9z"/>
		<path style="fill:#ADC0D1;" d="M136,40.7c2.1-2.6,5.7-3.7,9.2-5C142.6,38,138.9,39,136,40.7z"/>
		<path style="fill:#ADC0D1;" d="M110.1,56.6c2.2-3.1,5.9-4.6,9.2-6.7C116.9,52.8,113.1,54.2,110.1,56.6z"/>
		<path style="fill:#ADC0D1;" d="M71.8,89.9c3.7-3.8,6.7-8.3,10.8-11.7C79.3,82.4,76.2,86.8,71.8,89.9z"/>
		<path style="fill:#ADC0D1;" d="M49.3,120.7c3.2-4.9,5.7-10.4,10-14.2C55.8,111.2,53.3,116.7,49.3,120.7z"/>
		<path style="fill:#ADC0D1;" d="M36,145.7c1.8-4.6,3.5-9.3,6.7-12.5C40.3,137.3,38.8,142.1,36,145.7z"/>
		<path style="fill:#ADC0D1;" d="M36,336.6c2.8,3.6,4.3,8.4,6.7,12.5C39.4,345.9,37.8,341.1,36,336.6z"/>
		<path style="fill:#ADC0D1;" d="M59.3,375.7c-4.3-3.8-6.8-9.3-10-14.2C53.3,365.6,55.8,371.1,59.3,375.7z"/>
		<path style="fill:#ADC0D1;" d="M82.6,404.1c-4.1-3.4-7.1-7.9-10.8-11.7C76.2,395.5,79.3,399.9,82.6,404.1z"/>
		<path style="fill:#ADC0D1;" d="M119.3,432.4c-3.2-2-7-3.5-9.2-6.7C113.1,428.1,116.9,429.5,119.3,432.4z"/>
		<path style="fill:#ADC0D1;" d="M145.1,446.6c-3.5-1.3-7.1-2.4-9.2-5C138.9,443.3,142.6,444.3,145.1,446.6z"/>
		<path style="fill:#ADC0D1;" d="M285.1,440.7c2.4-3.1,5.2-5.9,8.3-8.3C291,435.5,288.3,438.3,285.1,440.7z"/>
		<path style="fill:#ADC0D1;" d="M283.5,268.2c3.7,3,7,6.3,10,10C289.8,275.2,286.4,271.9,283.5,268.2z"/>
		<path style="fill:#FFCE92;" d="M315.1,224.9c3.6,2.3,5.6,6.1,9.2,8.3c-3.9,0.3-8.7-5.7-11.7-9.2
			C313.8,223.6,314.7,227.3,315.1,224.9z"/>
		<path style="fill:#FEFEFE;" d="M339.3,114.1c21,20.1,28.8,53.5,44.2,79.2c21.6,8.2,40.7,18.7,51.7,37.5c-10,2.2-20.5,4-30.8,5.8
			c11.3,13.7,30.2,19.8,38.3,36.7c-8-5.3-18.2-11.2-28.3-16.7c-10.2-5.5-19.8-12.1-23.3-23.3c8.6-5,19.8-7.4,34.2-6.7
			c-6.4-7.8-13.9-11.1-21.7-15.8c-8-4.8-18-5.3-25.8-10.8c-8.1-5.7-13.4-23.6-18.3-34.2c-12.1-26.1-21.1-44.1-42.5-60.8
			c-12.6-9.9-26-19.6-50-19.2c-7.8-6.1-19.3-16.4-31.7-12.5c0.2,11.1,10.4,18.2,15.8,29.2c5.3,10.6,7,22.8,12.5,31.7
			c1.7,2.8,6.8,6.6,7.5,10c2,9.5-7,16.4-5.8,25.8c-1.4,2.5-1.4,10.8,0,13.3c1.4,10.5,3.6,20.3,10.8,25c2.5-12.2,4-25.5,11.7-32.5
			c8.2,17.4,16.5,34.6,27.5,49.2c-0.5,2.4-1.3-1.3-2.5-0.8c-10.4-7.4-18.8-16.8-23.3-30c-4.3,8.2-0.8,21.5-10.8,22.5
			c-21.4,2.1-25.2-53.4-14.2-70c-10-7.4-11.4-25.3-19.2-41.7c-4.5-9.6-18.4-17.6-17.5-30c1.5-20.8,35-7.6,43.3,2.5
			c28.9,0.5,43.7,15.2,60,28.3C333.4,108.9,336.2,111.6,339.3,114.1z"/>
		<path style="fill:#FFCE92;" d="M331,105.7c3.1,2.4,5.9,5.2,8.3,8.3C336.2,111.6,333.4,108.9,331,105.7z"/>
		<path style="fill:#FEFEFE;" d="M278.5,113.2c-1.1-5.8-5.7-8.2-7.5-13.3C281.1,96.8,286.8,110.3,278.5,113.2z"/>
		<path style="fill:#ADC0D1;" d="M149.3,366.6c3.1,2.4,5.9,5.2,8.3,8.3C154.5,372.5,151.7,369.7,149.3,366.6z"/>
		<path style="fill:#ADC0D1;" d="M174.3,256.6c-3.8-2.6-6.2-6.6-10-9.2c4.3-0.1,9.2,6.3,12.5,10
			C175.6,257.8,174.8,254.1,174.3,256.6z"/>
		<path style="fill:#FEFEFE;" d="M149.3,366.6c-21-20.1-28.7-53.5-44.2-79.2c-21.5-8.2-40.7-18.8-51.7-37.5
			c10-2.3,20.6-3.8,30.8-5.8C73,230.3,54.2,224.1,46,207.4c5.6,1,8.7,6.7,14.2,10c13.7,8.4,32.9,12.5,37.5,30
			c-8.7,4.9-19.8,7.5-34.2,6.7c7,6.9,12.8,11.7,20.8,16.7c7.9,4.9,18.7,4.4,26.7,10c8,5.6,13.5,23.6,18.3,34.2
			c11.8,25.9,21.2,44.1,42.5,60.8c12.5,9.8,26,19.7,50,19.2c7.8,6.1,19.3,16.4,31.7,12.5c-0.1-11.2-10.4-18.2-15.8-29.2
			c-5.3-10.6-7-22.8-12.5-31.7c-1.7-2.8-6.8-6.6-7.5-10c-2-9.5,7-16.4,5.8-25.8c1.4-2.8,1.4-11.4,0-14.2
			c-1.8-9.9-3.5-19.8-10.8-24.2c-3.4,11.6-2.6,27.4-13.3,31.7c-5.5-18.7-15.6-32.7-25-47.5c0.5-2.4,1.3,1.3,2.5,0.8
			c10.2,7,18,16.4,22.5,29.2c4.4-8.2,0.9-21.4,10.8-22.5c21.3-2.3,25.1,53.6,14.2,70c10,7.4,11.4,25.3,19.2,41.7
			c4.5,9.5,18.4,17.7,17.5,30c-1.6,20.8-35,7.6-43.3-2.5c-28.9-0.5-43.7-15.2-60-28.3C155.2,371.8,152.4,369,149.3,366.6z"/>
		<path style="fill:#FEFEFE;" d="M210.1,367.4c0.9,6,5.8,8.1,7.5,13.3C207.4,383.7,202,370.5,210.1,367.4z"/>
		<path style="fill:#ADC0D1;" d="M228.5,6.6c7.5-1.4,20.8-1.4,28.3,0C247.4,6.6,237.9,6.6,228.5,6.6z"/>
		<path style="fill:#ADC0D1;" d="M228.5,475.7c9.4,0,18.9,0,28.3,0C249.3,477.1,236,477.1,228.5,475.7z"/>
	</g>
</g>
</svg>
