<?xml version="1.0" encoding="utf-8"?>
<!-- Generator: Adobe Illustrator 22.0.1, SVG Export Plug-In . SVG Version: 6.00 Build 0)  -->
<svg version="1.1" id="Layer_1" xmlns:sketch="http://www.bohemiancoding.com/sketch/ns"
	 xmlns="http://www.w3.org/2000/svg" xmlns:xlink="http://www.w3.org/1999/xlink" x="0px" y="0px" viewBox="0 0 561.8 499.8"
	 style="enable-background:new 0 0 561.8 499.8;" xml:space="preserve">
<title>react-logo</title>
<desc>Created with Sketch.</desc>
<g id="Page-1" sketch:type="MSPage">
	<g id="logo-_x28_1_x29_" transform="translate(12.000000, 17.000000)" sketch:type="MSLayerGroup">
		<circle id="Oval" sketch:type="MSShapeGroup" style="fill:#00D8FF;" cx="268.9" cy="232.4" r="50.2">
		</circle>
		<path id="Shape" sketch:type="MSShapeGroup" style="fill:none;stroke:#00D8FF;stroke-width:24;" d="M268.9,130.4
			c67.4,0,129.9,9.7,177.1,25.9c56.8,19.6,91.8,49.2,91.8,76.1c0,28-37,59.5-98.1,79.7c-46.1,15.3-106.9,23.3-170.8,23.3
			c-65.6,0-127.6-7.5-174.3-23.4C35.6,291.8,0,259.9,0,232.4c0-26.6,33.4-56.1,89.4-75.6C136.8,140.3,200.9,130.4,268.9,130.4
			L268.9,130.4z"/>
		<path id="Shape_1_" sketch:type="MSShapeGroup" style="fill:none;stroke:#00D8FF;stroke-width:24;" d="M180.1,181.7
			C213.8,123.4,253.4,74,291,41.2c45.4-39.5,88.5-54.9,111.8-41.5c24.2,14,33,61.8,20.1,124.8c-9.8,47.6-33.2,104.2-65.2,159.6
			c-32.7,56.8-70.2,106.8-107.4,139.3c-47,41.1-92.4,55.9-116.2,42.2c-23.1-13.3-31.9-56.9-20.8-115.2
			C122.7,301.1,146.1,240.6,180.1,181.7L180.1,181.7z"/>
		<path id="Shape_2_" sketch:type="MSShapeGroup" style="fill:none;stroke:#00D8FF;stroke-width:24;" d="M180.2,284.3
			C146.4,226,123.5,167,113.9,118c-11.5-59-3.4-104.1,19.9-117.6c24.2-14,70.1,2.2,118.1,44.9c36.4,32.3,73.7,80.8,105.7,136.2
			c32.8,56.7,57.5,114.2,67,162.6c12.1,61.2,2.3,108-21.5,121.7c-23.1,13.3-65.2-0.8-110.2-39.5
			C254.9,393.7,214.3,343.1,180.2,284.3L180.2,284.3z"/>
	</g>
</g>
</svg>
