<?xml version="1.0" encoding="utf-8"?>
<!-- Generator: Adobe Illustrator 22.0.1, SVG Export Plug-In . SVG Version: 6.00 Build 0)  -->
<svg version="1.0" id="Layer_1" xmlns="http://www.w3.org/2000/svg" xmlns:xlink="http://www.w3.org/1999/xlink" x="0px" y="0px"
	 viewBox="0 0 2162 2500" style="enable-background:new 0 0 2162 2500;" xml:space="preserve">
<path style="fill:#2F406A;" d="M1849.6,797v900.2l-764.9,452.6l-6.9,6.3v336.5l6.9,6.5L2162,1876.8V622.4l-10.2-2.5l-303.7,169.8
	L1849.6,797"/>
<path style="fill:#2379BD;" d="M317.3,1704.6l767.4,445.2v349.3L0,1874.3V624.8l11.1-1.7L314,799.2l3.3,10.1L317.3,1704.6"/>
<path style="fill:#03AFEF;" d="M317.3,809.3L0,624.8L1082.2,0.1L2162,622.4L1849.6,797l-767.4-437.8L317.3,809.3"/>
<path style="fill:#2F406A;" d="M1071.5,1601.6l-8.3-8.5v-338l8.3-4.3l2-8.3l289.8-169l8.9,2v348.3L1071.5,1601.6"/>
<path style="fill:#2379BD;" d="M765.8,1434.6v-361.7l8.4-0.4l294.8,171.6l2.5,6.8v350.8L765.8,1434.6"/>
<path style="fill:#03AFEF;" d="M1066.5,895l-300.7,177.9l305.7,177.9l300.7-175.4L1066.5,895"/>
<path style="fill:#2F406A;" d="M697.3,1822.2l-8.3-8.5v-338l8.3-4.3l2-8.3l289.8-169l8.9,2v348.3L697.3,1822.2"/>
<path style="fill:#2379BD;" d="M391.6,1655.1v-361.7l8.4-0.4l294.8,171.6l2.5,6.8v350.8L391.6,1655.1"/>
<path style="fill:#03AFEF;" d="M692.3,1115.5l-300.7,177.9l305.7,177.9L998,1296L692.3,1115.5"/>
<path style="fill:#2F406A;" d="M1472.4,1830.5l-8.3-8.5v-338l8.3-4.3l2-8.3l289.8-169l8.9,2v348.3L1472.4,1830.5"/>
<path style="fill:#2379BD;" d="M1166.7,1663.5v-361.7l8.4-0.4l294.8,171.6l2.5,6.8v350.8L1166.7,1663.5"/>
<path style="fill:#03AFEF;" d="M1467.4,1123.9l-300.7,177.9l305.7,177.9l300.7-175.4L1467.4,1123.9"/>
<path style="fill:#2F406A;" d="M1098.2,2051l-8.3-8.5v-338l8.3-4.3l2-8.3l289.8-169l8.9,2v348.3L1098.2,2051"/>
<path style="fill:#2379BD;" d="M792.6,1884v-361.7l8.4-0.4l294.8,171.6l2.5,6.8V2051L792.6,1884"/>
<path style="fill:#03AFEF;" d="M1093.2,1344.4l-300.7,177.9l305.7,177.9l300.7-175.4L1093.2,1344.4"/>
<path style="fill:#2F406A;" d="M1071.5,1122.2l-8.3-8.5v-338l8.3-4.3l2-8.3l289.8-169l8.9,2v348.3L1071.5,1122.2"/>
<path style="fill:#2379BD;" d="M765.8,955.2V593.5l8.4-0.4L1069,764.7l2.5,6.8v350.8L765.8,955.2"/>
<path style="fill:#03AFEF;" d="M1066.5,415.6L765.8,593.5l305.7,177.9L1372.2,596L1066.5,415.6"/>
<path style="fill:#2F406A;" d="M697.3,1342.7l-8.3-8.5v-338l8.3-4.3l2-8.3l289.8-169l8.9,2v348.3L697.3,1342.7"/>
<path style="fill:#2379BD;" d="M391.6,1175.7V814l8.4-0.4l294.8,171.6l2.5,6.8v350.8L391.6,1175.7"/>
<path style="fill:#03AFEF;" d="M692.3,636.1L391.6,814l305.7,177.9L998,816.5L692.3,636.1"/>
<path style="fill:#2F406A;" d="M1472.4,1351.1l-8.3-8.5v-338l8.3-4.3l2-8.3l289.8-169l8.9,2v348.3L1472.4,1351.1"/>
<path style="fill:#2379BD;" d="M1166.7,1184V822.4l8.4-0.4l294.8,171.6l2.5,6.8v350.8L1166.7,1184"/>
<path style="fill:#03AFEF;" d="M1467.4,644.5l-300.7,177.9l305.7,177.9l300.7-175.4L1467.4,644.5"/>
<path style="fill:#2F406A;" d="M1098.2,1571.6l-8.3-8.5v-338l8.3-4.3l2-8.3l289.8-169l8.9,2v348.3L1098.2,1571.6"/>
<path style="fill:#2379BD;" d="M792.6,1404.5v-361.7l8.4-0.4l294.8,171.6l2.5,6.8v350.8L792.6,1404.5"/>
<path style="fill:#03AFEF;" d="M1093.2,865l-300.7,177.9l305.7,177.9l300.7-175.4L1093.2,865"/>
</svg>
